<svg width="31" height="24" viewBox="0 0 31 24" fill="none" xmlns="http://www.w3.org/2000/svg">
<path d="M7.40625 0C8.40081 0 9.35464 0.395088 10.0579 1.09835C10.7612 1.80161 11.1562 2.75544 11.1562 3.75C11.1562 4.74456 10.7612 5.69839 10.0579 6.40165C9.35464 7.10491 8.40081 7.5 7.40625 7.5C6.41169 7.5 5.45786 7.10491 4.7546 6.40165C4.05134 5.69839 3.65625 4.74456 3.65625 3.75C3.65625 2.75544 4.05134 1.80161 4.7546 1.09835C5.45786 0.395088 6.41169 0 7.40625 0ZM24.6562 0C25.6508 0 26.6046 0.395088 27.3079 1.09835C28.0112 1.80161 28.4062 2.75544 28.4062 3.75C28.4062 4.74456 28.0112 5.69839 27.3079 6.40165C26.6046 7.10491 25.6508 7.5 24.6562 7.5C23.6617 7.5 22.7079 7.10491 22.0046 6.40165C21.3013 5.69839 20.9062 4.74456 20.9062 3.75C20.9062 2.75544 21.3013 1.80161 22.0046 1.09835C22.7079 0.395088 23.6617 0 24.6562 0ZM0.65625 14.0016C0.65625 11.2406 2.89687 9 5.65781 9H7.65937C8.40469 9 9.1125 9.16406 9.75 9.45469C9.68906 9.79219 9.66094 10.1438 9.66094 10.5C9.66094 12.2906 10.4484 13.8984 11.6906 15C11.6812 15 11.6719 15 11.6578 15H1.65469C1.10625 15 0.65625 14.55 0.65625 14.0016ZM19.6547 15C19.6453 15 19.6359 15 19.6219 15C20.8687 13.8984 21.6516 12.2906 21.6516 10.5C21.6516 10.1438 21.6187 9.79688 21.5625 9.45469C22.2 9.15938 22.9078 9 23.6531 9H25.6547C28.4156 9 30.6562 11.2406 30.6562 14.0016C30.6562 14.5547 30.2063 15 29.6578 15H19.6547ZM11.1562 10.5C11.1562 9.30653 11.6304 8.16193 12.4743 7.31802C13.3182 6.47411 14.4628 6 15.6562 6C16.8497 6 17.9943 6.47411 18.8382 7.31802C19.6821 8.16193 20.1562 9.30653 20.1562 10.5C20.1562 11.6935 19.6821 12.8381 18.8382 13.682C17.9943 14.5259 16.8497 15 15.6562 15C14.4628 15 13.3182 14.5259 12.4743 13.682C11.6304 12.8381 11.1562 11.6935 11.1562 10.5ZM6.65625 22.7484C6.65625 19.2984 9.45469 16.5 12.9047 16.5H18.4078C21.8578 16.5 24.6562 19.2984 24.6562 22.7484C24.6562 23.4375 24.0984 24 23.4047 24H7.90781C7.21875 24 6.65625 23.4422 6.65625 22.7484Z" fill="#477BE2"/>
</svg>
