<svg width="25" height="24" viewBox="0 0 25 24" fill="none" xmlns="http://www.w3.org/2000/svg">
<g clip-path="url(#clip0_1_279)">
<path d="M7.6688 18.0421L6.22036 16.5937C5.82192 16.1953 5.6813 15.6187 5.85942 15.0843C6.00005 14.6671 6.18755 14.1234 6.41255 13.5H1.45317C1.05005 13.5 0.675045 13.2843 0.473483 12.9328C0.27192 12.5812 0.276608 12.15 0.482858 11.8031L2.9438 7.65464C3.55317 6.62808 4.65473 5.99995 5.84536 5.99995H9.70317C9.81567 5.81245 9.92817 5.63902 10.0407 5.47027C13.8797 -0.192234 19.5985 -0.379734 23.011 0.248391C23.5547 0.346829 23.9766 0.773391 24.0797 1.31714C24.7079 4.73433 24.5157 10.4484 18.8579 14.2875C18.6938 14.4 18.5157 14.5125 18.3282 14.625V18.4828C18.3282 19.6734 17.7 20.7796 16.6735 21.3843L12.525 23.8453C12.1782 24.0515 11.7469 24.0562 11.3954 23.8546C11.0438 23.6531 10.8282 23.2828 10.8282 22.875V17.85C10.1672 18.0796 9.59067 18.2671 9.15473 18.4078C8.62973 18.5765 8.05786 18.4312 7.66411 18.0421H7.6688ZM18.3282 7.87495C18.8255 7.87495 19.3024 7.67741 19.654 7.32578C20.0056 6.97415 20.2032 6.49723 20.2032 5.99995C20.2032 5.50267 20.0056 5.02576 19.654 4.67413C19.3024 4.3225 18.8255 4.12495 18.3282 4.12495C17.8309 4.12495 17.354 4.3225 17.0023 4.67413C16.6507 5.02576 16.4532 5.50267 16.4532 5.99995C16.4532 6.49723 16.6507 6.97415 17.0023 7.32578C17.354 7.67741 17.8309 7.87495 18.3282 7.87495Z" fill="#477BE2"/>
</g>
<defs>
<clipPath id="clip0_1_279">
<path d="M0.328125 0H24.3281V24H0.328125V0Z" fill="white"/>
</clipPath>
</defs>
</svg>
