<svg width="27" height="30" viewBox="0 0 27 30" fill="none" xmlns="http://www.w3.org/2000/svg">
<g clip-path="url(#clip0_1_369)">
<path d="M7.875 0C8.91211 0 9.75 0.837891 9.75 1.875V3.75H17.25V1.875C17.25 0.837891 18.0879 0 19.125 0C20.1621 0 21 0.837891 21 1.875V3.75H23.8125C25.3652 3.75 26.625 5.00977 26.625 6.5625V9.375H0.375V6.5625C0.375 5.00977 1.63477 3.75 3.1875 3.75H6V1.875C6 0.837891 6.83789 0 7.875 0ZM0.375 11.25H26.625V27.1875C26.625 28.7402 25.3652 30 23.8125 30H3.1875C1.63477 30 0.375 28.7402 0.375 27.1875V11.25ZM19.6523 17.8711C20.2031 17.3203 20.2031 16.4297 19.6523 15.8848C19.1016 15.3398 18.2109 15.334 17.666 15.8848L12.0996 21.4512L9.3457 18.6973C8.79492 18.1465 7.9043 18.1465 7.35938 18.6973C6.81445 19.248 6.80859 20.1387 7.35938 20.6836L11.1094 24.4336C11.6602 24.9844 12.5508 24.9844 13.0957 24.4336L19.6523 17.8711Z" fill="#477BE2"/>
</g>
<defs>
<clipPath id="clip0_1_369">
<path d="M0.375 0H26.625V30H0.375V0Z" fill="white"/>
</clipPath>
</defs>
</svg>
