<svg width="31" height="30" viewBox="0 0 31 30" fill="none" xmlns="http://www.w3.org/2000/svg">
<g clip-path="url(#clip0_1_386)">
<path d="M15.5 30C19.4782 30 23.2936 28.4196 26.1066 25.6066C28.9196 22.7936 30.5 18.9782 30.5 15C30.5 11.0218 28.9196 7.20644 26.1066 4.3934C23.2936 1.58035 19.4782 0 15.5 0C11.5218 0 7.70644 1.58035 4.8934 4.3934C2.08035 7.20644 0.5 11.0218 0.5 15C0.5 18.9782 2.08035 22.7936 4.8934 25.6066C7.70644 28.4196 11.5218 30 15.5 30ZM10.1152 19.0723C11.1641 20.2852 12.957 21.5625 15.5 21.5625C18.043 21.5625 19.8359 20.2852 20.8848 19.0723C21.2246 18.6797 21.8164 18.6387 22.209 18.9785C22.6016 19.3184 22.6426 19.9102 22.3027 20.3027C20.9961 21.8027 18.7285 23.4375 15.5 23.4375C12.2715 23.4375 10.0039 21.8027 8.69727 20.3027C8.35742 19.9102 8.39844 19.3184 8.79102 18.9785C9.18359 18.6387 9.77539 18.6797 10.1152 19.0723ZM8.96094 12.1875C8.96094 11.6902 9.15848 11.2133 9.51011 10.8617C9.86174 10.51 10.3387 10.3125 10.8359 10.3125C11.3332 10.3125 11.8101 10.51 12.1618 10.8617C12.5134 11.2133 12.7109 11.6902 12.7109 12.1875C12.7109 12.6848 12.5134 13.1617 12.1618 13.5133C11.8101 13.865 11.3332 14.0625 10.8359 14.0625C10.3387 14.0625 9.86174 13.865 9.51011 13.5133C9.15848 13.1617 8.96094 12.6848 8.96094 12.1875ZM20.2109 10.3125C20.7082 10.3125 21.1851 10.51 21.5368 10.8617C21.8884 11.2133 22.0859 11.6902 22.0859 12.1875C22.0859 12.6848 21.8884 13.1617 21.5368 13.5133C21.1851 13.865 20.7082 14.0625 20.2109 14.0625C19.7137 14.0625 19.2367 13.865 18.8851 13.5133C18.5335 13.1617 18.3359 12.6848 18.3359 12.1875C18.3359 11.6902 18.5335 11.2133 18.8851 10.8617C19.2367 10.51 19.7137 10.3125 20.2109 10.3125Z" fill="#477BE2"/>
</g>
<defs>
<clipPath id="clip0_1_386">
<path d="M0.5 0H30.5V30H0.5V0Z" fill="white"/>
</clipPath>
</defs>
</svg>
