<svg width="35" height="30" viewBox="0 0 35 30" fill="none" xmlns="http://www.w3.org/2000/svg">
<g clip-path="url(#clip0_1_377)">
<path d="M0.625 4.6875C0.625 3.13477 1.88477 1.875 3.4375 1.875H9.0625C10.6152 1.875 11.875 3.13477 11.875 4.6875V5.625H23.125V4.6875C23.125 3.13477 24.3848 1.875 25.9375 1.875H31.5625C33.1152 1.875 34.375 3.13477 34.375 4.6875V10.3125C34.375 11.8652 33.1152 13.125 31.5625 13.125H25.9375C24.3848 13.125 23.125 11.8652 23.125 10.3125V9.375H11.875V10.3125C11.875 10.4121 11.8691 10.5117 11.8574 10.6055L16.5625 16.875H22.1875C23.7402 16.875 25 18.1348 25 19.6875V25.3125C25 26.8652 23.7402 28.125 22.1875 28.125H16.5625C15.0098 28.125 13.75 26.8652 13.75 25.3125V19.6875C13.75 19.5879 13.7559 19.4883 13.7676 19.3945L9.0625 13.125H3.4375C1.88477 13.125 0.625 11.8652 0.625 10.3125V4.6875Z" fill="#477BE2"/>
</g>
<defs>
<clipPath id="clip0_1_377">
<path d="M0.625 0H34.375V30H0.625V0Z" fill="white"/>
</clipPath>
</defs>
</svg>
