<svg width="19" height="18" viewBox="0 0 19 18" fill="none" xmlns="http://www.w3.org/2000/svg">
<g clip-path="url(#clip0_1_494)">
<path d="M16.0625 3.375V7.875H10.4375V3.375H16.0625ZM16.0625 10.125V14.625H10.4375V10.125H16.0625ZM8.1875 7.875H2.5625V3.375H8.1875V7.875ZM2.5625 10.125H8.1875V14.625H2.5625V10.125ZM2.5625 1.125C1.32148 1.125 0.3125 2.13398 0.3125 3.375V14.625C0.3125 15.866 1.32148 16.875 2.5625 16.875H16.0625C17.3035 16.875 18.3125 15.866 18.3125 14.625V3.375C18.3125 2.13398 17.3035 1.125 16.0625 1.125H2.5625Z" fill="white"/>
</g>
<defs>
<clipPath id="clip0_1_494">
<path d="M0.3125 0H18.3125V18H0.3125V0Z" fill="white"/>
</clipPath>
</defs>
</svg>
