<svg width="18" height="18" viewBox="0 0 18 18" fill="none" xmlns="http://www.w3.org/2000/svg">
<path d="M14.8789 2.79297C13.2422 1.15234 11.0625 0.25 8.74609 0.25C3.96484 0.25 0.0742188 4.14062 0.0742188 8.92188C0.0742188 10.4492 0.472656 11.9414 1.23047 13.2578L0 17.75L4.59766 16.543C5.86328 17.2344 7.28906 17.5977 8.74219 17.5977H8.74609C13.5234 17.5977 17.5 13.707 17.5 8.92578C17.5 6.60938 16.5156 4.43359 14.8789 2.79297ZM8.74609 16.1367C7.44922 16.1367 6.17969 15.7891 5.07422 15.1328L4.8125 14.9766L2.08594 15.6914L2.8125 13.0312L2.64062 12.7578C1.91797 11.6094 1.53906 10.2852 1.53906 8.92188C1.53906 4.94922 4.77344 1.71484 8.75 1.71484C10.6758 1.71484 12.4844 2.46484 13.8438 3.82812C15.2031 5.19141 16.0391 7 16.0352 8.92578C16.0352 12.9023 12.7188 16.1367 8.74609 16.1367ZM12.6992 10.7383C12.4844 10.6289 11.418 10.1055 11.2188 10.0352C11.0195 9.96094 10.875 9.92578 10.7305 10.1445C10.5859 10.3633 10.1719 10.8477 10.043 10.9961C9.91797 11.1406 9.78906 11.1602 9.57422 11.0508C8.30078 10.4141 7.46484 9.91406 6.625 8.47266C6.40234 8.08984 6.84766 8.11719 7.26172 7.28906C7.33203 7.14453 7.29687 7.01953 7.24219 6.91016C7.1875 6.80078 6.75391 5.73438 6.57422 5.30078C6.39844 4.87891 6.21875 4.9375 6.08594 4.92969C5.96094 4.92188 5.81641 4.92188 5.67188 4.92188C5.52734 4.92188 5.29297 4.97656 5.09375 5.19141C4.89453 5.41016 4.33594 5.93359 4.33594 7C4.33594 8.06641 5.11328 9.09766 5.21875 9.24219C5.32812 9.38672 6.74609 11.5742 8.92188 12.5156C10.2969 13.1094 10.8359 13.1602 11.5234 13.0586C11.9414 12.9961 12.8047 12.5352 12.9844 12.0273C13.1641 11.5195 13.1641 11.0859 13.1094 10.9961C13.0586 10.8984 12.9141 10.8438 12.6992 10.7383Z" fill="#477BE2"/>
</svg>
