<svg width="18" height="14" viewBox="0 0 18 14" fill="none" xmlns="http://www.w3.org/2000/svg">
<path d="M7.8 13.7344C8.1375 13.8531 8.5 13.6062 8.5 13.25V1.45625C8.5 1.325 8.45 1.19375 8.34375 1.1125C7.73125 0.625 6.325 0 4.5 0C2.92188 0 1.44688 0.415625 0.565625 0.753125C0.2125 0.890625 0 1.24063 0 1.61875V13.1906C0 13.5625 0.4 13.8219 0.753125 13.7063C1.7375 13.3781 3.29688 13 4.5 13C5.55937 13 6.96875 13.4375 7.8 13.7344ZM10.2 13.7344C11.0312 13.4375 12.4406 13 13.5 13C14.7031 13 16.2625 13.3781 17.2469 13.7063C17.6 13.825 18 13.5625 18 13.1906V1.61875C18 1.24063 17.7875 0.890625 17.4344 0.75625C16.5531 0.415625 15.0781 0 13.5 0C11.675 0 10.2688 0.625 9.65625 1.1125C9.55313 1.19375 9.5 1.325 9.5 1.45625V13.25C9.5 13.6062 9.86562 13.8531 10.2 13.7344Z" fill="white"/>
</svg>
