<svg width="21" height="22" viewBox="0 0 21 22" fill="none" xmlns="http://www.w3.org/2000/svg">
<path d="M16.5 9.5C18.9844 9.5 21 7.48438 21 5C21 2.51562 18.9844 0.5 16.5 0.5C14.0156 0.5 12 2.51562 12 5C12 5.1875 12.0094 5.375 12.0328 5.55781L7.62188 7.76094C6.81563 6.97812 5.71406 6.5 4.5 6.5C2.01562 6.5 0 8.51562 0 11C0 13.4844 2.01562 15.5 4.5 15.5C5.71406 15.5 6.81563 15.0219 7.62188 14.2391L12.0328 16.4422C12.0094 16.625 12 16.8078 12 17C12 19.4844 14.0156 21.5 16.5 21.5C18.9844 21.5 21 19.4844 21 17C21 14.5156 18.9844 12.5 16.5 12.5C15.2859 12.5 14.1844 12.9781 13.3781 13.7609L8.96719 11.5578C8.99063 11.375 9 11.1922 9 11C9 10.8078 8.99063 10.625 8.96719 10.4422L13.3781 8.23906C14.1844 9.02188 15.2859 9.5 16.5 9.5Z" fill="#023E7D"/>
</svg>
