<svg width="31" height="30" viewBox="0 0 31 30" fill="none" xmlns="http://www.w3.org/2000/svg">
<g clip-path="url(#clip0_1_348)">
<path d="M12.0469 6.14062C12.0469 5.60156 11.707 5.12695 11.2734 4.80469C10.5938 4.29492 10.1719 3.5918 10.1719 2.8125C10.1719 1.25977 11.8535 0 13.9219 0C15.9902 0 17.6719 1.25977 17.6719 2.8125C17.6719 3.5918 17.25 4.29492 16.5703 4.80469C16.1367 5.12695 15.7969 5.60156 15.7969 6.14062C15.7969 6.89062 16.4063 7.5 17.1562 7.5H20.4844C22.0371 7.5 23.2969 8.75977 23.2969 10.3125V13.6406C23.2969 14.3906 23.9062 15 24.6562 15C25.1953 15 25.6699 14.6602 25.9922 14.2266C26.502 13.5469 27.2051 13.125 27.9844 13.125C29.5371 13.125 30.7969 14.8066 30.7969 16.875C30.7969 18.9434 29.5371 20.625 27.9844 20.625C27.2051 20.625 26.502 20.2031 25.9922 19.5234C25.6699 19.0898 25.1953 18.75 24.6562 18.75C23.9062 18.75 23.2969 19.3594 23.2969 20.1094V27.1875C23.2969 28.7402 22.0371 30 20.4844 30H17.1562C16.4063 30 15.7969 29.3906 15.7969 28.6406C15.7969 28.1016 16.1367 27.627 16.5703 27.3047C17.25 26.7949 17.6719 26.0918 17.6719 25.3125C17.6719 23.7598 15.9902 22.5 13.9219 22.5C11.8535 22.5 10.1719 23.7598 10.1719 25.3125C10.1719 26.0918 10.5938 26.7949 11.2734 27.3047C11.707 27.627 12.0469 28.1016 12.0469 28.6406C12.0469 29.3906 11.4375 30 10.6875 30H3.60938C2.05664 30 0.796875 28.7402 0.796875 27.1875V20.1094C0.796875 19.3594 1.40625 18.75 2.15625 18.75C2.69531 18.75 3.16992 19.0898 3.49219 19.5234C4.00195 20.2031 4.70508 20.625 5.48438 20.625C7.03711 20.625 8.29688 18.9434 8.29688 16.875C8.29688 14.8066 7.03711 13.125 5.48438 13.125C4.70508 13.125 4.00195 13.5469 3.49219 14.2266C3.16992 14.6602 2.69531 15 2.15625 15C1.40625 15 0.796875 14.3906 0.796875 13.6406V10.3125C0.796875 8.75977 2.05664 7.5 3.60938 7.5H10.6875C11.4375 7.5 12.0469 6.89062 12.0469 6.14062Z" fill="#477BE2"/>
</g>
<defs>
<clipPath id="clip0_1_348">
<path d="M0.796875 0H30.7969V30H0.796875V0Z" fill="white"/>
</clipPath>
</defs>
</svg>
