<svg width="19" height="24" viewBox="0 0 19 24" fill="none" xmlns="http://www.w3.org/2000/svg">
<g clip-path="url(#clip0_1_290)">
<path d="M13.7344 18C14.1844 16.5047 15.1172 15.2297 16.0406 13.9594C16.2844 13.6266 16.5281 13.2937 16.7625 12.9562C17.6906 11.6203 18.2344 10.0031 18.2344 8.25469C18.2344 3.69375 14.5406 0 9.98438 0C5.42813 0 1.73438 3.69375 1.73438 8.25C1.73438 9.99844 2.27813 11.6203 3.20625 12.9516C3.44063 13.2891 3.68437 13.6219 3.92812 13.9547C4.85625 15.225 5.78906 16.5047 6.23438 17.9953H13.7344V18ZM9.98438 24C12.0562 24 13.7344 22.3219 13.7344 20.25V19.5H6.23438V20.25C6.23438 22.3219 7.9125 24 9.98438 24ZM6.23438 8.25C6.23438 8.6625 5.89687 9 5.48438 9C5.07188 9 4.73438 8.6625 4.73438 8.25C4.73438 5.34844 7.08281 3 9.98438 3C10.3969 3 10.7344 3.3375 10.7344 3.75C10.7344 4.1625 10.3969 4.5 9.98438 4.5C7.9125 4.5 6.23438 6.17812 6.23438 8.25Z" fill="#477BE2"/>
</g>
<defs>
<clipPath id="clip0_1_290">
<path d="M0.984375 0H18.9844V24H0.984375V0Z" fill="white"/>
</clipPath>
</defs>
</svg>
