<svg width="31" height="30" viewBox="0 0 31 30" fill="none" xmlns="http://www.w3.org/2000/svg">
<g clip-path="url(#clip0_1_395)">
<path d="M3.88086 11.3086L4.43164 12.2695C4.91797 13.1191 5.71484 13.7461 6.6582 14.0156L10.0508 14.9824C11.0586 15.2695 11.75 16.1895 11.75 17.2383V19.5762C11.75 20.2207 12.1133 20.8066 12.6875 21.0938C13.2617 21.3809 13.625 21.9668 13.625 22.6113V24.8965C13.625 25.8105 14.498 26.4727 15.377 26.2207C16.3203 25.9512 17.0527 25.1953 17.293 24.2402L17.457 23.584C17.7031 22.5938 18.3477 21.7441 19.2324 21.2402L19.707 20.9707C20.5859 20.4727 21.125 19.5352 21.125 18.5273V18.041C21.125 17.2969 20.8262 16.582 20.2988 16.0547L20.0703 15.8262C19.543 15.2988 18.8281 15 18.084 15H15.5586C14.9082 15 14.2637 14.8301 13.6953 14.5078L11.6738 13.3535C11.4219 13.207 11.2285 12.9727 11.1348 12.6973C10.9473 12.1348 11.1992 11.5254 11.7324 11.2617L12.0781 11.0859C12.4648 10.8926 12.916 10.8574 13.3262 10.998L14.6855 11.4492C15.166 11.6074 15.6934 11.4258 15.9688 11.0098C16.2441 10.5996 16.2148 10.0547 15.8984 9.67383L15.1016 8.71875C14.5156 8.01562 14.5215 6.99023 15.1191 6.29883L16.0391 5.22656C16.5547 4.62305 16.6367 3.76172 16.2441 3.07617L16.1035 2.83008C15.8984 2.81836 15.6992 2.8125 15.4941 2.8125C10.0566 2.8125 5.44531 6.38086 3.88086 11.3086ZM27.6875 15C27.6875 12.8438 27.125 10.8164 26.1406 9.05273L24.6406 9.65625C23.7207 10.0254 23.2461 11.0508 23.5566 11.9883L24.5469 14.959C24.752 15.5684 25.25 16.0312 25.8711 16.1836L27.5762 16.6113C27.6465 16.084 27.6816 15.5449 27.6816 15H27.6875ZM0.5 15C0.5 11.0218 2.08035 7.20644 4.8934 4.3934C7.70644 1.58035 11.5218 0 15.5 0C19.4782 0 23.2936 1.58035 26.1066 4.3934C28.9196 7.20644 30.5 11.0218 30.5 15C30.5 18.9782 28.9196 22.7936 26.1066 25.6066C23.2936 28.4196 19.4782 30 15.5 30C11.5218 30 7.70644 28.4196 4.8934 25.6066C2.08035 22.7936 0.5 18.9782 0.5 15Z" fill="#477BE2"/>
</g>
<defs>
<clipPath id="clip0_1_395">
<path d="M0.5 0H30.5V30H0.5V0Z" fill="white"/>
</clipPath>
</defs>
</svg>
