<svg width="15" height="14" viewBox="0 0 15 14" fill="none" xmlns="http://www.w3.org/2000/svg">
<g clip-path="url(#clip0_1_419)">
<path d="M9.03125 0C8.54727 0 8.15625 0.391016 8.15625 0.875C8.15625 1.35898 8.54727 1.75 9.03125 1.75H11.2926L5.78828 7.25703C5.44648 7.59883 5.44648 8.15391 5.78828 8.4957C6.13008 8.8375 6.68516 8.8375 7.02695 8.4957L12.5312 2.98867V5.25C12.5312 5.73398 12.9223 6.125 13.4062 6.125C13.8902 6.125 14.2812 5.73398 14.2812 5.25V0.875C14.2812 0.391016 13.8902 0 13.4062 0H9.03125ZM2.46875 0.875C1.26016 0.875 0.28125 1.85391 0.28125 3.0625V11.8125C0.28125 13.0211 1.26016 14 2.46875 14H11.2188C12.4273 14 13.4062 13.0211 13.4062 11.8125V8.75C13.4062 8.26602 13.0152 7.875 12.5312 7.875C12.0473 7.875 11.6562 8.26602 11.6562 8.75V11.8125C11.6562 12.0531 11.4594 12.25 11.2188 12.25H2.46875C2.22812 12.25 2.03125 12.0531 2.03125 11.8125V3.0625C2.03125 2.82188 2.22812 2.625 2.46875 2.625H5.53125C6.01523 2.625 6.40625 2.23398 6.40625 1.75C6.40625 1.26602 6.01523 0.875 5.53125 0.875H2.46875Z" fill="white"/>
</g>
<defs>
<clipPath id="clip0_1_419">
<path d="M0.28125 0H14.2812V14H0.28125V0Z" fill="white"/>
</clipPath>
</defs>
</svg>
