<svg width="31" height="30" viewBox="0 0 31 30" fill="none" xmlns="http://www.w3.org/2000/svg">
<g clip-path="url(#clip0_1_325)">
<path d="M21.6094 5.625C21.6094 6.46289 21.4277 7.25977 21.0938 7.98047L24.1875 13.3242C22.7988 14.8066 21.0117 15.9082 19.002 16.4648L15.9844 11.25L12 18.1348C13.2598 18.5332 14.5957 18.75 15.9902 18.75C20.1328 18.75 23.8301 16.834 26.2383 13.8281C26.8887 13.0195 28.0664 12.8906 28.875 13.5352C29.6836 14.1797 29.8125 15.3633 29.168 16.1719C26.0684 20.0273 21.3164 22.5 15.9844 22.5C13.9102 22.5 11.918 22.125 10.084 21.4395L6.76758 27.1699C6.49219 27.6445 6.08203 28.0312 5.58984 28.2773L2.34375 29.9004C2.05078 30.0469 1.70508 30.0293 1.42969 29.8594C1.1543 29.6895 0.984375 29.3848 0.984375 29.0625V25.8164C0.984375 25.3242 1.11328 24.8379 1.36523 24.4043L4.88086 18.3281C4.13086 17.6719 3.43359 16.9512 2.8125 16.1719C2.16211 15.3633 2.29688 14.1855 3.10547 13.5352C3.91406 12.8848 5.0918 13.0195 5.74219 13.8281C6.07617 14.2441 6.43359 14.6367 6.80859 15.0059L10.875 7.98047C10.5469 7.26562 10.3594 6.46875 10.3594 5.625C10.3594 2.51953 12.8789 0 15.9844 0C19.0898 0 21.6094 2.51953 21.6094 5.625ZM22.8398 23.0801C24.75 22.3301 26.502 21.2754 28.0488 19.9805L30.6094 24.4043C30.8555 24.832 30.9902 25.3184 30.9902 25.8164V29.0625C30.9902 29.3848 30.8203 29.6895 30.5449 29.8594C30.2695 30.0293 29.9238 30.0469 29.6309 29.9004L26.3848 28.2773C25.8926 28.0312 25.4824 27.6445 25.207 27.1699L22.8398 23.0801ZM15.9844 7.5C16.4817 7.5 16.9586 7.30246 17.3102 6.95083C17.6618 6.59919 17.8594 6.12228 17.8594 5.625C17.8594 5.12772 17.6618 4.65081 17.3102 4.29917C16.9586 3.94754 16.4817 3.75 15.9844 3.75C15.4871 3.75 15.0102 3.94754 14.6586 4.29917C14.3069 4.65081 14.1094 5.12772 14.1094 5.625C14.1094 6.12228 14.3069 6.59919 14.6586 6.95083C15.0102 7.30246 15.4871 7.5 15.9844 7.5Z" fill="#477BE2"/>
</g>
<defs>
<clipPath id="clip0_1_325">
<path d="M0.984375 0H30.9844V30H0.984375V0Z" fill="white"/>
</clipPath>
</defs>
</svg>
